# xmcd
#
# Track frame offsets:
#	150
#	16617
#	27957
#	48202
#	73132
#	102862
#	113827
#	158562
#	185100
#	224162
#	266427
#
# Disc length: 3817 seconds
#
# Revision: 1
# Processed by: cddbd v1.5.1PL2 Copyright (c) Steve Scherf et al.
# Submitted via: audiograbber 1.83.01
#
DISCID=940ee70b
DTITLE=Perrys - Center Stage Live
DYEAR=1996
DGENRE=Southern Gospel
TTITLE0=I'm Happy Knowing
TTITLE1=Gonna Be, Someday Will Be
TTITLE2=Joy In The Morning
TTITLE3=Marriage Supper Of The Lamb
TTITLE4=God Sent Angels
TTITLE5=Back On The Mountain
TTITLE6=Goodbye World, Goodbye (Instrumental)
TTITLE7=One Of These Days
TTITLE8=A Place We Can Really Call Home
TTITLE9=Power In Prayer
TTITLE10=I Like The Promise
EXTD=
EXTT0=
EXTT1=
EXTT2=
EXTT3=
EXTT4=
EXTT5=
EXTT6=
EXTT7=
EXTT8=
EXTT9=
EXTT10=
PLAYORDER=
